<?xml version="1.0" encoding="utf-8"?>
<!-- Generator: Adobe Illustrator 21.0.0, SVG Export Plug-In . SVG Version: 6.00 Build 0)  -->
<svg version="1.1" id="图层_1" xmlns="http://www.w3.org/2000/svg" xmlns:xlink="http://www.w3.org/1999/xlink" x="0px" y="0px"
	 viewBox="0 0 200 200" style="enable-background:new 0 0 200 200;" xml:space="preserve">
<style type="text/css">
	.st0{fill:#22418A;}
</style>
<path class="st0" d="M190,98.8c-1.7,1.5-4.4,1.5-6,0l-38.8-33.3c-0.3-0.2-0.5-0.4-0.8-0.7l-16.6-14.3c-0.3-0.2-0.5-0.4-0.8-0.7
	L99.8,26.7L16,98.8c-1.7,1.5-4.4,1.5-6,0c-1.7-1.5-1.7-3.7,0-5.2l86.5-74.2c0.1-0.2,0.2-0.4,0.4-0.5c0.9-0.8,1.9-1.1,3.1-1.1
	s2.2,0.3,3.1,1.1c0.2,0.2,0.3,0.4,0.4,0.5L126,38.8v-9.7l0,0c0-2,1.9-3.7,4.4-3.7h17.4c1.2,0,2.2,0.4,3.1,1.1
	c0.8,0.7,1.3,1.6,1.3,2.6l0,32.1l37.9,32.4C191.7,95.1,191.7,97.4,190,98.8z M143.5,32.8h-8.7v13.4l8.7,7.5V32.8z M39.2,92.4
	c2.4,0,4.4,1.7,4.4,3.7v70.8c0,4.1,3.9,7.5,8.7,7.5h26.1l0,0V126c0-2,1.9-3.7,4.4-3.7h34.8c2.4,0,4.4,1.7,4.4,3.7v48.4l0,0h26.1
	c4.8,0,8.7-3.3,8.7-7.5l0-70.8c0-2,1.9-3.7,4.4-3.7s4.4,1.7,4.4,3.7v70.8c0,8.3-7.8,14.9-17.4,14.9H52.2c-9.6,0-17.4-6.7-17.4-14.9
	V96.1C34.8,94,36.8,92.4,39.2,92.4z M113.1,174.4v-44.7H87v44.7l0,0H113.1L113.1,174.4z"/>
</svg>
