<?xml version="1.0" encoding="utf-8"?>
<!-- Generator: Adobe Illustrator 21.0.0, SVG Export Plug-In . SVG Version: 6.00 Build 0)  -->
<svg version="1.1" id="图层_1" xmlns="http://www.w3.org/2000/svg" xmlns:xlink="http://www.w3.org/1999/xlink" x="0px" y="0px"
	 viewBox="0 0 200 200" style="enable-background:new 0 0 200 200;" xml:space="preserve">
<style type="text/css">
	.st0{fill:#22418A;}
</style>
<path class="st0" d="M100,107.6c-26.1,0-47.4-21.3-47.4-47.4c0-26.1,21.3-47.4,47.4-47.4c26.1,0,47.4,21.3,47.4,47.4
	C147.4,86.3,126.1,107.6,100,107.6 M100,19.3c-22.6,0-40.9,18.4-40.9,40.9c0,22.6,18.4,40.9,40.9,40.9c22.6,0,40.9-18.4,40.9-40.9
	C140.9,37.6,122.6,19.3,100,19.3"/>
<path class="st0" d="M130.1,58.9c-0.6,0-1.1-0.5-1.1-1.1c0-12.9-9.2-23.8-22-25.8c-0.6-0.1-1-0.6-0.9-1.2c0.1-0.6,0.6-1,1.2-0.9
	c13.8,2.2,23.8,14,23.8,28C131.1,58.4,130.7,58.9,130.1,58.9"/>
<path class="st0" d="M99.9,103.8c47.5,0,81.8,27.2,81.8,64.8l0.1,3.2c0.1,1.6,0.1,4.2-0.4,10.1c-0.1,1.8-2.1,3.1-4.4,3
	c-2.3-0.1-4-1.7-3.9-3.4c0.4-5.5,0.4-8,0.4-9.5l-0.1-3.3c0-34.4-30.2-58.4-73.3-58.4c-0.1,0-0.3,0-0.3,0c-43,0-73.1,24-73.1,58.3
	l-0.1,4.3c0,0.4,0.1,3,0.4,7.8h97.9c2.3,0,4.2,1.5,4.2,3.2c0,1.8-1.9,3.2-4.2,3.2l-101.9,0c-2.2,0-4-1.3-4.2-3
	c-0.6-6.9-0.7-11-0.6-11.4l0.1-4.2C18.3,131.1,52.6,103.8,99.9,103.8"/>
</svg>
