<?xml version="1.0" encoding="utf-8"?>
<!-- Generator: Adobe Illustrator 21.0.0, SVG Export Plug-In . SVG Version: 6.00 Build 0)  -->
<svg version="1.1" id="图层_1" xmlns="http://www.w3.org/2000/svg" xmlns:xlink="http://www.w3.org/1999/xlink" x="0px" y="0px"
	 viewBox="0 0 200 200" style="enable-background:new 0 0 200 200;" xml:space="preserve">
<style type="text/css">
	.st0{fill:#22418A;}
</style>
<path class="st0" d="M100,200C44.8,200,0,155.2,0,100S44.8,0,100,0s100,44.8,100,100S155.2,200,100,200z M100,9.1
	C49.8,9.1,9.1,49.8,9.1,100s40.7,90.9,90.9,90.9s90.9-40.7,90.9-90.9S150.2,9.1,100,9.1z"/>
<path class="st0" d="M159.1,172.7c0-0.1,0-0.1,0-0.2c0-32.7-26.5-59.1-59.1-59.1c-32.6,0-59.1,26.4-59.1,59l-9,0
	c0.1-30,19.6-55.4,46.5-64.4C64.3,100.2,54.6,85.2,54.6,68c0-25,20.3-45.4,45.4-45.4s45.3,20.3,45.3,45.4c0,17.2-9.6,32.2-23.8,39.9
	c27,9,46.5,34.5,46.5,64.6c0,0.1,0,0.2,0,0.3L159.1,172.7z M136.4,68c0-20.1-16.3-36.4-36.4-36.4S63.6,47.9,63.6,68
	c0,20,16.2,36.3,36.3,36.4c0,0,0.1,0,0.1,0s0.1,0,0.1,0C120.1,104.3,136.4,88,136.4,68z"/>
</svg>
